<svg xmlns="http://www.w3.org/2000/svg" xmlns:xlink="http://www.w3.org/1999/xlink" version="1.1" x="0px" y="0px" viewBox="0 0 256 256" enable-background="new 0 0 256 256" xml:space="preserve">
<metadata> Svg Vector Icons : http://www.onlinewebfonts.com/icon </metadata>
<g><g><path fill="#c3c3c3" d="M106,8.6c-53.1,0-96,42.9-96,96c0,53.1,42.9,96,96,96s96-42.9,96-96C202,51.6,159,8.6,106,8.6z M106,179.3c-41.2,0-74.7-33.5-74.7-74.7c0-41.2,33.4-74.7,74.7-74.7c41.2,0,74.7,33.4,74.7,74.7C180.7,145.8,147.2,179.3,106,179.3z M99.9,48.5c-27.7,0-50,22.3-50,50c0,5.4,4.4,10.1,10.1,10.1c5.4,0,10.1-4.4,10.1-10.1c0-16.6,13.5-30.1,30.1-30.1c5.4,0,10.1-4.4,10.1-10.1C110.4,52.6,105.6,48.5,99.9,48.5z M243.2,227.6l-47.3-47.3c-3.4-3.4-9.1-3.4-12.8,0l-4.4,4.4c-3.4,3.4-3.4,9.1,0,12.8l47.3,47.3c3.4,3.4,9.1,3.4,12.8,0l4.4-4.4C246.9,237.1,246.9,231.3,243.2,227.6z"/></g></g>
<script xmlns=""/></svg>